Coordinates
version=1
nRows=21
nColumns=12
inDegrees=yes

Units are S.I. units (second, meters, Newtons, ...)
Angles are in degrees

endheader
time	SC_y	SC_z	SC_x	AC_y	AC_z	AC_x	GH_y	GH_z	GH_yy	EL_x	PS_y
       0.0              -20.28          26.97          52.67           55.9         -13.31        -0.8467           51.5          81.58          166.8          107.8          86.33
   0.03741              -20.28          26.96          52.68           55.9         -13.31        -0.8452          51.49          81.57          166.7          107.8          86.32
   0.07483              -20.28          26.96          52.68          55.89         -13.31        -0.8437          51.49          81.55          166.7          107.8           86.3
    0.1122              -20.28          26.95          52.68          55.89         -13.31        -0.8421          51.48          81.54          166.6          107.8          86.29
    0.1497              -20.28          26.94          52.69          55.89         -13.31        -0.8403          51.48          81.52          166.6          107.8          86.28
    0.1871              -20.28          26.94          52.69          55.88         -13.31        -0.8385          51.47           81.5          166.6          107.8          86.26
    0.2245              -20.28          26.93           52.7          55.88         -13.32        -0.8365          51.47          81.48          166.5          107.7          86.25
    0.2619              -20.29          26.93           52.7          55.88         -13.32        -0.8344          51.46          81.46          166.5          107.7          86.23
    0.2993              -20.29          26.92          52.71          55.87         -13.32        -0.8321          51.45          81.44          166.4          107.7          86.21
    0.3367              -20.29          26.91          52.71          55.87         -13.32        -0.8297          51.45          81.41          166.4          107.7          86.19
    0.3741              -20.29           26.9          52.72          55.87         -13.32         -0.827          51.44          81.39          166.3          107.7          86.17
    0.4115              -20.29          26.89          52.72          55.86         -13.32        -0.8242          51.43          81.36          166.2          107.7          86.15
     0.449              -20.29          26.88          52.73          55.86         -13.32        -0.8212          51.42          81.33          166.2          107.7          86.13
    0.4864              -20.29          26.87          52.74          55.85         -13.32        -0.8179          51.42           81.3          166.1          107.7           86.1
    0.5238              -20.29          26.86          52.75          55.85         -13.33        -0.8144          51.41          81.27          166.0          107.7          86.07
    0.5612              -20.29          26.85          52.75          55.84         -13.33        -0.8105          51.39          81.23          165.9          107.7          86.04
    0.5986              -20.29          26.84          52.76          55.83         -13.33        -0.8063          51.38          81.19          165.8          107.7          86.01
     0.636               -20.3          26.82          52.77          55.83         -13.33        -0.8018          51.37          81.14          165.7          107.7          85.97
    0.6734               -20.3          26.81          52.79          55.82         -13.33        -0.7968          51.36          81.09          165.6          107.7          85.93
    0.7109               -20.3          26.79           52.8          55.81         -13.34        -0.7914          51.34          81.04          165.4          107.7          85.89
    0.7483               -20.3          26.77          52.81           55.8         -13.34        -0.7854          51.32          80.98          165.3          107.7          85.85
